<svg width="135" height="113" viewBox="0 0 135 113" fill="none" xmlns="http://www.w3.org/2000/svg">
<g clip-path="url(#clip0)">
<path d="M73.807 52.1521H59.864V39.0424H73.807V52.1521ZM73.807 7.0625H59.864V20.4592H73.807V7.0625ZM90.3023 39.0203H76.3593V52.1301H90.3023V39.0203ZM57.3328 23.1076H43.3898V36.3719H57.3328V23.1076ZM73.807 23.1076H59.864V36.3719H73.807V23.1076ZM132.195 45.1779C129.157 43.0371 122.154 42.2646 116.775 43.324C116.079 38.0271 113.252 33.4145 108.105 29.2652L105.152 27.2127L103.191 30.3025C99.3093 36.4381 98.2547 46.5463 102.41 53.2115C100.575 54.2488 96.9679 55.6613 92.2008 55.573H0.506228C-1.32893 66.7848 1.72967 81.3512 9.78748 91.349C17.6133 101.038 29.3414 105.96 44.6765 105.96C77.8781 105.96 102.452 89.9586 113.948 60.892C118.462 60.9803 128.208 60.9141 133.207 50.9162C133.523 50.3645 134.599 48.0029 135 47.1422L132.195 45.1779ZM24.3843 39.0203H10.4625V52.1301H24.4054V39.0203H24.3843ZM40.8586 39.0203H26.9156V52.1301H40.8586V39.0203ZM57.3328 39.0203H43.3898V52.1301H57.3328V39.0203ZM40.8586 23.1076H26.9156V36.3719H40.8586V23.1076Z" fill="#F4F4F4"/>
</g>
<defs>
<clipPath id="clip0">
<rect width="135" height="113" fill="white"/>
</clipPath>
</defs>
</svg>
