<svg width="135" height="130" viewBox="0 0 135 130" fill="none" xmlns="http://www.w3.org/2000/svg">
<g clip-path="url(#clip0)">
<path d="M132.996 29.4097C132.975 29.3507 132.951 29.293 132.922 29.237C132.885 29.1278 132.838 29.0217 132.783 28.9196C132.74 28.8562 132.692 28.796 132.64 28.7394C132.582 28.656 132.519 28.5763 132.45 28.5007C132.39 28.4448 132.313 28.3991 132.247 28.3484C132.172 28.286 132.093 28.2283 132.01 28.1757L106.629 14.1042C106.308 13.9259 105.944 13.8321 105.574 13.8321C105.204 13.8321 104.84 13.9259 104.52 14.1042L79.1332 28.1833C79.0518 28.2365 78.9742 28.295 78.9012 28.3585C78.8293 28.405 78.7606 28.4559 78.6955 28.5109C78.6265 28.5851 78.563 28.664 78.5057 28.747C78.4608 28.8079 78.4028 28.8612 78.3633 28.9273C78.31 29.0299 78.2641 29.1359 78.2262 29.2446C78.2051 29.303 78.1708 29.3564 78.1524 29.4173C78.104 29.5895 78.0792 29.767 78.0785 29.9454V56.6665L56.9268 68.3944V16.1075C56.9272 15.9282 56.9024 15.7497 56.8529 15.5769C56.8371 15.5159 56.8002 15.4626 56.7791 15.4042C56.7423 15.2959 56.6964 15.1906 56.642 15.0894C56.6051 15.0234 56.5444 14.97 56.4996 14.9066C56.4416 14.8232 56.3782 14.7435 56.3098 14.6679C56.244 14.6137 56.1754 14.5629 56.1041 14.5155C56.0302 14.4538 55.9527 14.3962 55.8721 14.3429L30.4831 0.271403C30.1624 0.0931241 29.7987 -0.000732422 29.4284 -0.000732422C29.0581 -0.000732422 28.6944 0.0931241 28.3737 0.271403L2.99004 14.3429C2.90763 14.3948 2.83 14.4534 2.75801 14.5181C2.68529 14.5646 2.61572 14.6154 2.54971 14.6704C2.48151 14.7447 2.41895 14.8236 2.3625 14.9066C2.31504 14.97 2.25703 15.0234 2.21748 15.0894C2.16345 15.1905 2.11846 15.2958 2.08301 15.4042C2.05421 15.4595 2.02868 15.5163 2.00654 15.5743C1.95804 15.7482 1.93322 15.9275 1.93272 16.1075V99.8204C1.93171 100.178 2.02869 100.529 2.21388 100.839C2.39907 101.149 2.66589 101.406 2.9874 101.585L53.7442 129.728C53.8571 129.783 53.9744 129.829 54.0949 129.865C54.1503 129.885 54.203 129.916 54.261 129.931C54.6151 130.023 54.988 130.023 55.3421 129.931C55.3948 129.918 55.4397 129.891 55.4871 129.875C55.6144 129.837 55.7379 129.787 55.8563 129.728L106.629 101.585C106.95 101.406 107.217 101.149 107.402 100.839C107.588 100.529 107.685 100.178 107.684 99.8204V73.0943L132.005 59.6093C132.328 59.4295 132.596 59.1702 132.782 58.8579C132.967 58.5456 133.063 58.1916 133.059 57.832V29.9403C133.061 29.7616 133.04 29.5834 132.996 29.4097ZM29.4258 4.38722L50.5696 16.105L29.4231 27.8304L8.28194 16.1075L29.4258 4.38722ZM52.6948 19.6216V70.738L40.4262 77.5402L31.5431 82.4659V31.3571L43.8117 24.555L52.6948 19.6216ZM52.6948 124.429L6.16201 98.6423V19.6318L15.0451 24.5525L27.3111 31.3571V85.9927C27.3165 86.0695 27.3271 86.1458 27.3428 86.2212C27.3491 86.3219 27.3632 86.4221 27.385 86.5208C27.4118 86.5995 27.4453 86.6759 27.4852 86.7493C27.5145 86.8368 27.5516 86.9218 27.5959 87.0032C27.6446 87.0721 27.6975 87.1383 27.7541 87.2013C27.8069 87.2762 27.865 87.3475 27.9281 87.4146C27.9888 87.4704 28.0652 87.511 28.1312 87.5618C28.2031 87.6221 28.2789 87.678 28.3579 87.7294L52.6658 100.978L52.6948 124.429ZM54.8042 97.4718L33.6946 85.9648L55.8668 73.6732L80.1932 60.1882L101.321 71.9009L85.8173 80.422L54.8042 97.4718ZM103.457 98.6321L56.9215 124.442V101.004L91.3887 82.0622L103.457 75.4226V98.6321ZM103.457 68.3843L94.5738 63.4763L82.3052 56.6741V33.462L91.1883 38.3878L103.457 45.195V68.3843ZM105.566 41.653L84.4198 29.9302L105.566 18.2099L126.708 29.9277L105.566 41.653ZM107.676 68.3843V45.195L119.971 38.3878L128.851 33.462V56.6665L107.676 68.3843Z" fill="#F4F4F4"/>
</g>
<defs>
<clipPath id="clip0">
<rect width="135" height="130" fill="white"/>
</clipPath>
</defs>
</svg>
