<svg width="135" height="144" viewBox="0 0 135 144" fill="none" xmlns="http://www.w3.org/2000/svg">
<g clip-path="url(#clip0)">
<path d="M132.454 66.389L73.5268 11.3765C71.8955 9.85538 69.6839 9.00092 67.378 9.00092C65.072 9.00092 62.8604 9.85538 61.2292 11.3765L48.9767 22.8037L64.5017 37.2937C72.6559 34.7231 80.3763 42.0103 77.5768 49.5787L92.5413 63.5456C102.856 60.2269 110.977 72.2644 103.23 79.4897C95.2474 86.94 82.0728 78.6825 86.3548 68.9878L72.3877 55.9687V90.239C80.0116 93.7659 79.0956 102.009 75.1239 105.708C73.1835 107.518 70.5523 108.535 67.8089 108.535C65.0655 108.535 62.4343 107.518 60.4939 105.708C55.1994 100.758 57.1581 92.5144 63.884 89.9578V55.364C57.6161 52.9706 56.471 46.7184 58.267 42.7078L42.962 28.4062L2.54634 66.1331C0.915792 67.6553 -0.000213623 69.7196 -0.000213623 71.872C-0.000213623 74.0244 0.915792 76.0888 2.54634 77.6109L61.4913 132.623C63.1221 134.144 65.3332 134.999 67.6386 134.999C69.9441 134.999 72.1552 134.144 73.786 132.623L132.454 77.8668C134.084 76.3447 135 74.2804 135 72.1279C135 69.9755 134.084 67.9112 132.454 66.389Z" fill="#F4F4F4"/>
</g>
<defs>
<clipPath id="clip0">
<rect width="135" height="144" fill="white"/>
</clipPath>
</defs>
</svg>
