<svg width="29" height="30" viewBox="0 0 29 30" fill="none" xmlns="http://www.w3.org/2000/svg">
<path d="M1.25742 1.87501C1.13841 1.87346 1.02027 1.89618 0.909742 1.94187C0.799217 1.98756 0.698475 2.05532 0.613268 2.14129C0.528061 2.22726 0.460059 2.32975 0.413144 2.44291C0.36623 2.55607 0.341322 2.67768 0.339844 2.80079C0.340799 2.85565 0.344581 2.91042 0.351172 2.96486L4.19707 27.1113C4.24466 27.4076 4.39175 27.6769 4.61243 27.872C4.83312 28.0671 5.11325 28.1753 5.40352 28.1778H23.8514C24.0683 28.1807 24.279 28.1031 24.4453 27.9591C24.6116 27.815 24.7224 27.614 24.7576 27.3926L28.6035 2.97072C28.6411 2.72606 28.5836 2.47595 28.4435 2.27503C28.3034 2.07412 28.0921 1.93873 27.8559 1.89845C27.8033 1.89142 27.7503 1.88751 27.6973 1.88673L1.25742 1.87501ZM17.451 19.3242H11.5604L9.96875 10.711H18.8783L17.451 19.3242Z" fill="#F4F4F4"/>
</svg>
