<svg width="16" height="16" viewBox="0 0 16 16" fill="none" xmlns="http://www.w3.org/2000/svg">
<g clip-path="url(#clip0)">
<path d="M12.2858 9.14272H11.7143C11.6308 9.14272 11.5623 9.16946 11.509 9.22319C11.4553 9.2766 11.4286 9.34506 11.4286 9.42843V12.2855C11.4286 12.6784 11.2888 13.0147 11.009 13.2945C10.7293 13.5742 10.3929 13.714 10.0001 13.714H2.57138C2.17853 13.714 1.84219 13.5742 1.56239 13.2945C1.28266 13.0147 1.1428 12.6785 1.1428 12.2855V4.85698C1.1428 4.46413 1.28262 4.12791 1.56239 3.84815C1.84219 3.56835 2.17853 3.42853 2.57138 3.42853H8.85703C8.9405 3.42853 9.00899 3.40167 9.06249 3.34816C9.116 3.29459 9.14274 3.2262 9.14274 3.14279V2.57128C9.14274 2.48803 9.116 2.41951 9.06249 2.36604C9.00899 2.31247 8.9405 2.28573 8.85703 2.28573H2.57138C1.86311 2.28573 1.25742 2.53722 0.754364 3.04018C0.251496 3.54311 0 4.1488 0 4.85707V12.2857C0 12.9939 0.251496 13.5997 0.754395 14.1025C1.25745 14.6055 1.86314 14.8571 2.57141 14.8571H10.0001C10.7083 14.8571 11.314 14.6055 11.817 14.1025C12.3201 13.5997 12.5716 12.9939 12.5716 12.2857V9.42865C12.5716 9.34518 12.5448 9.2767 12.4911 9.22319C12.4375 9.16946 12.369 9.14272 12.2858 9.14272Z" fill="#F4F4F4"/>
<path d="M15.8303 1.31255C15.7171 1.19944 15.583 1.14293 15.4284 1.14293H10.857C10.7023 1.14293 10.5683 1.19944 10.4553 1.31255C10.3421 1.4256 10.2855 1.55955 10.2855 1.71431C10.2855 1.86908 10.3421 2.00306 10.4553 2.11617L12.0266 3.68756L6.20528 9.50902C6.14568 9.56853 6.11597 9.63702 6.11597 9.71427C6.11597 9.79179 6.14577 9.86025 6.20528 9.91976L7.22315 10.9375C7.28266 10.997 7.35115 11.0267 7.42852 11.0267C7.50589 11.0267 7.5744 10.997 7.63388 10.9375L13.4552 5.11614L15.0267 6.68753C15.1398 6.80064 15.2737 6.85722 15.4285 6.85722C15.5833 6.85722 15.7172 6.80064 15.8304 6.68753C15.9435 6.57445 16 6.44054 16 6.28577V1.71431C16 1.55945 15.9433 1.4256 15.8303 1.31255Z" fill="#F4F4F4"/>
</g>
<defs>
<clipPath id="clip0">
<rect width="16" height="16" fill="white"/>
</clipPath>
</defs>
</svg>
